
nColumns=19
nRows=67
DataType=double
version=3
OpenSimVersion=4.4-2022-10-11-798caa840
endheader
time	ground_force_calcn_r_vx	ground_force_calcn_r_vy	ground_force_calcn_r_vz	ground_force_calcn_r_px	ground_force_calcn_r_py	ground_force_calcn_r_pz	ground_force_calcn_r_mx	ground_force_calcn_r_my	ground_force_calcn_r_mz	ground_force_calcn_l_vx	ground_force_calcn_l_vy	ground_force_calcn_l_vz	ground_force_calcn_l_px	ground_force_calcn_l_py	ground_force_calcn_l_pz	ground_force_calcn_l_mx	ground_force_calcn_l_my	ground_force_calcn_l_mz
0	-2.90429	138.663	7.53298	0.09477579999999999	0	-0.146422	-0.0120449	0.575072	0.0312413	0	0	0	0	0	0	0	0	0
0.01	-8.794090000000001	179.409	7.76106	0.09901989999999999	0	-0.146574	-0.0285825	0.583114	0.025225	0	0	0	0	0	0	0	0	0
0.02	-16.4764	225.431	7.81105	0.103284	0	-0.14661	-0.0435619	0.596016	0.0206516	0	0	0	0	0	0	0	0	0
0.03	-25.8189	275.957	7.56676	0.10707	0	-0.146532	-0.0569853	0.6090680000000001	0.0167007	0	0	0	0	0	0	0	0	0
0.04	-36.4197	329.956	6.87028	0.110532	0	-0.146351	-0.06821679999999999	0.618031	0.0128685	0	0	0	0	0	0	0	0	0
0.05	-47.765	386.096	5.55488	0.113765	0	-0.146072	-0.0767153	0.620109	0.008921689999999999	0	0	0	0	0	0	0	0	0
0.06	-59.3146	442.815	3.49139	0.116825	0	-0.145709	-0.0823011	0.614422	0.00484443	0	0	0	0	0	0	0	0	0
0.07000000000000001	-70.5151	498.478	0.637289	0.119745	0	-0.145277	-0.0852084	0.602346	0.000770081	0	0	0	0	0	0	0	0	0
0.08	-80.837	551.53	-2.92997	0.122532	0	-0.144801	-0.086159	0.58784	-0.00312286	0	0	0	0	0	0	0	0	0
0.09	-89.8202	600.623	-7.01262	0.125186	0	-0.144311	-0.0862921	0.577031	-0.00673717	0	0	0	0	0	0	0	0	0
0.1	-97.0909	644.681	-11.3251	0.127692	0	-0.14383	-0.0867969	0.576329	-0.0101243	0	0	0	0	0	0	0	0	0
0.11	-102.371	682.929	-15.5631	0.130041	0	-0.143383	-0.0882434	0.588683	-0.0134153	0	0	0	0	0	0	0	0	0
0.12	-105.517	714.9059999999999	-19.4823	0.132231	0	-0.142975	-0.0900227	0.609926	-0.0166214	0	0	0	0	0	0	0	0	0
0.13	-106.54	740.463	-22.9387	0.134275	0	-0.142609	-0.09056350000000001	0.629422	-0.0194988	0	0	0	0	0	0	0	0	0
0.14	-105.576	759.721	-25.8824	0.136195	0	-0.142273	-0.0881545	0.634355	-0.0216114	0	0	0	0	0	0	0	0	0
0.15	-102.851	773.01	-28.3213	0.138021	0	-0.141959	-0.08173850000000001	0.614331	-0.0225077	0	0	0	0	0	0	0	0	0
0.16	-98.645	780.821	-30.2831	0.13979	0	-0.141659	-0.0712286	0.5638069999999999	-0.0218665	0	0	0	0	0	0	0	0	0
0.17	-93.26090000000001	783.777	-31.7951	0.141544	0	-0.141366	-0.0573643	0.482098	-0.019557	0	0	0	0	0	0	0	0	0
0.18	-87.0052	782.591	-32.8809	0.143326	0	-0.141078	-0.0413308	0.371761	-0.0156197	0	0	0	0	0	0	0	0	0
0.19	-80.17610000000001	778.014	-33.5663	0.145189	0	-0.140791	-0.0243844	0.236622	-0.0102087	0	0	0	0	0	0	0	0	0
0.2	-73.0552	770.799	-33.8819	0.147184	0	-0.140503	-0.00766983	0.0809237	-0.00355715	0	0	0	0	0	0	0	0	0
0.21	-65.90179999999999	761.681	-33.8638	0.149368	0	-0.140213	0.007890670000000001	-0.091199	0.00405464	0	0	0	0	0	0	0	0	0
0.22	-58.95	751.364	-33.552	0.151803	0	-0.139917	0.0216707	-0.27621	0.0123341	0	0	0	0	0	0	0	0	0
0.23	-52.4033	740.52	-32.9877	0.154544	0	-0.139616	0.0333576	-0.471382	0.0209985	0	0	0	0	0	0	0	0	0
0.24	-46.4208	729.775	-32.2141	0.157638	0	-0.139305	0.0429435	-0.675109	0.029801	0	0	0	0	0	0	0	0	0
0.25	-41.102	719.681	-31.2764	0.161122	0	-0.138986	0.0506528	-0.886911	0.038544	0	0	0	0	0	0	0	0	0
0.26	-36.4796	710.676	-30.2219	0.165009	0	-0.138659	0.0568279	-1.10709	0.0470797	0	0	0	0	0	0	0	0	0
0.27	-32.526	703.0599999999999	-29.1003	0.169295	0	-0.138323	0.0618338	-1.33656	0.0553214	0	0	0	0	0	0	0	0	0
0.28	-29.1732	696.9930000000001	-27.964	0.173958	0	-0.137979	0.06597980000000001	-1.57636	0.0632452	0	0	0	0	0	0	0	0	0
0.29	-26.3333	692.513	-26.8665	0.178966	0	-0.137626	0.0694737	-1.82702	0.07088029999999999	0	0	0	0	0	0	0	0	0
0.3	-23.9149	689.581	-25.8601	0.184278	0	-0.137265	0.0724041	-2.08775	0.07829319999999999	0	0	0	0	0	0	0	0	0
0.31	-21.8269	688.123	-24.9949	0.189848	0	-0.1369	0.07472860000000001	-2.35592	0.08557480000000001	0	0	0	0	0	0	0	0	0
0.32	-19.9768	688.0700000000001	-24.3172	0.195628	0	-0.136533	0.0762693	-2.62698	0.09284050000000001	0	0	0	0	0	0	0	0	0
0.33	-18.2704	689.378	-23.8663	0.20156	0	-0.13617	0.07672089999999999	-2.89483	0.100219	0	0	0	0	0	0	0	0	0
0.34	-16.6136	692.032	-23.6681	0.207591	0	-0.13582	0.0756795	-3.1524	0.107815	0	0	0	0	0	0	0	0	0
0.35	-14.915	696.042	-23.7304	0.21366	0	-0.13549	0.07269299999999999	-3.39238	0.115658	0	0	0	0	0	0	0	0	0
0.36	-13.0911	701.439	-24.0405	0.219713	0	-0.135193	0.06733749999999999	-3.60805	0.123659	0	0	0	0	0	0	0	0	0
0.37	-11.071	708.2670000000001	-24.5663	0.2257	0	-0.134942	0.0593064	-3.79412	0.131599	0	0	0	0	0	0	0	0	0
0.38	-8.79837	716.557	-25.2604	0.231578	0	-0.134748	0.0484663	-3.9472	0.139148	0	0	0	0	0	0	0	0	0
0.39	-6.22819	726.319	-26.0662	0.237307	0	-0.134621	0.0348644	-4.06581	0.145914	0	0	0	0	0	0	0	0	0
0.4	-3.32342	737.5170000000001	-26.925	0.242858	0	-0.134571	0.0187021	-4.15027	0.151516	0	0	0	0	0	0	0	0	0
0.41	-0.052846	750.0650000000001	-27.7823	0.248206	0	-0.134603	0.00029606	-4.2021	0.155645	0	0	0	0	0	0	0	0	0
0.42	3.60965	763.8099999999999	-28.592	0.253336	0	-0.134721	-0.0199592	-4.2234	0.158096	0	0	0	0	0	0	0	0	0
0.43	7.68479	778.524	-29.3163	0.258236	0	-0.134923	-0.0416183	-4.21624	0.158767	0	0	0	0	0	0	0	0	0
0.44	12.1867	793.898	-29.9248	0.262903	0	-0.135205	-0.0642041	-4.18254	0.157655	0	0	0	0	0	0	0	0	0
0.45	17.1207	809.524	-30.3917	0.267335	0	-0.135563	-0.08722149999999999	-4.12412	0.154831	0	0	0	0	0	0	0	0	0
0.46	22.4797	824.88	-30.6927	0.271543	0	-0.135988	-0.11017	-4.04262	0.150421	0	0	0	0	0	0	0	0	0
0.47	28.2421	839.322	-30.8014	0.275535	0	-0.136474	-0.132568	-3.93977	0.144582	0	0	0	0	0	0	0	0	0
0.48	34.3717	852.087	-30.6853	0.279331	0	-0.137013	-0.154017	-3.81813	0.137498	0	0	0	0	0	0	0	0	0
0.49	40.8159	862.318	-30.3035	0.28295	0	-0.137598	-0.17427	-3.6818	0.129386	0	0	0	0	0	0	0	0	0
0.5	47.5012	869.11	-29.6096	0.286413	0	-0.138229	-0.193295	-3.53665	0.120489	0	0	0	0	0	0	0	0	0
0.51	54.3274	871.563	-28.5568	0.289739	0	-0.138903	-0.211309	-3.38998	0.111073	0	0	0	0	0	0	0	0	0
0.52	61.1605	868.837	-27.1066	0.292947	0	-0.139619	-0.228758	-3.2497	0.101387	1.94469	20.3113	-5.06404	0.720973	0	-0.191153	0.0378661	0.395492	-0.09860439999999999
0.53	67.83	860.203	-25.2384	0.296057	0	-0.140377	-0.246257	-3.12297	0.09162820000000001	0.29368	41.779	-5.73927	0.759848	0	-0.215167	0.00404774	0.575832	-0.0791033
0.54	74.127	845.079	-22.9556	0.299083	0	-0.141176	-0.264458	-3.01493	0.081897	-2.2227	69.1019	-6.41489	0.781046	0	-0.226597	-0.0215209	0.669067	-0.0621111
0.55	79.80410000000001	823.064	-20.2879	0.302046	0	-0.142013	-0.283899	-2.92801	0.0721734	-5.78454	102.717	-7.0403	0.793082	0	-0.23232	-0.0417064	0.74059	-0.0507604
0.5600000000000001	84.5849	793.961	-17.2922	0.30497	0	-0.142886	-0.304868	-2.86166	0.062326	-10.574	142.779	-7.54778	0.801175	0	-0.235677	-0.0596365	0.80526	-0.0425689
0.57	88.1837	757.809	-14.0521	0.307879	0	-0.143793	-0.327267	-2.81238	0.0521502	-16.7931	189.055	-7.85395	0.807267	0	-0.237856	-0.0768945	0.865671	-0.0359627
0.58	90.331	714.9160000000001	-10.679	0.310805	0	-0.14473	-0.350486	-2.77389	0.0414347	-24.6537	240.877	-7.86802	0.812254	0	-0.239386	-0.09412860000000001	0.919679	-0.0300404
0.59	90.8044	665.8819999999999	-7.31087	0.31378	0	-0.145693	-0.373288	-2.73738	0.0300543	-34.1941	297.195	-7.48651	0.816597	0	-0.240541	-0.110911	0.963974	-0.0242831
0.6	89.4639	611.614	-4.10917	0.316839	0	-0.146675	-0.393759	-2.69191	0.0180858	-45.1413	356.714	-6.59464	0.820535	0	-0.241474	-0.125827	0.99431	-0.018382
0.61	86.28360000000001	553.308	-1.24486	0.320019	0	-0.147664	-0.409446	-2.62564	0.00590727	-57.0227	417.922	-5.09963	0.824193	0	-0.242273	-0.137084	1.0047	-0.0122597
0.62	81.3668	492.407	1.12637	0.323359	0	-0.148648	-0.417754	-2.52812	-0.005783	-69.3073	479.112	-2.96633	0.827634	0	-0.242986	-0.142946	0.988168	-0.00611806
0.63	74.9389	430.514	2.89392	0.326901	0	-0.149612	-0.416539	-2.39296	-0.0160855	-81.423	538.514	-0.23683	0.830882	0	-0.243636	-0.141873	0.938315	-0.000412656
0.64	67.3228	369.266	4.01627	0.330705	0	-0.150541	-0.404632	-2.21941	-0.0241391	-92.7711	594.417	2.96378	0.833933	0	-0.244227	-0.132712	0.8503309999999999	0.00423977
0.65	58.9036	310.219	4.53025	0.334855	0	-0.151429	-0.38207	-2.01219	-0.0293848	-102.777	645.283	6.44026	0.836764	0	-0.244759	-0.115031	0.7222229999999999	0.00720816
0.66	50.094	254.736	4.54028	0.33948	0	-0.152282	-0.350078	-1.7802	-0.0317294	-110.927	689.854	9.962730000000001	0.839344	0	-0.245228	-0.08955780000000001	0.556961	0.00804352
